<svg width="1000" height="1000" viewBox="0 0 1000 1000" fill="none" xmlns="http://www.w3.org/2000/svg">
<g filter="url(#filter0_d_2004_161)">
<path d="M962.5 496.25C962.5 699.905 755.991 865 501.25 865C246.509 865 40 699.905 40 496.25C40 292.595 246.509 127.5 501.25 127.5C755.991 127.5 353.757 673.887 962.5 496.25Z" fill="black"/>
<path d="M477.358 500.786C479.115 689.935 738.902 838.17 504.718 839.984C270.535 841.8 79.2683 689.935 77.5122 500.786C75.7561 311.637 264.176 156.83 498.361 155.015C732.542 153.201 475.6 311.637 477.358 500.786Z" fill="#7A1E1C"/>
<path d="M892.49 499.477C894.048 667.916 721.265 805.815 506.572 807.485C291.876 809.155 116.568 673.964 115.01 505.524C113.452 337.086 286.234 199.185 500.929 197.515C715.625 195.845 890.931 331.038 892.49 499.477Z" fill="#9B6E3C"/>
<path d="M212.5 421.168C262.783 272.729 433.031 189.367 592.76 234.975C752.486 280.583 841.21 437.89 790.926 586.331C740.643 734.772 570.396 818.134 410.667 772.524C250.939 726.916 638.052 400.681 212.5 421.168Z" fill="black"/>
<path d="M516.845 503.694C560.86 365.176 432.838 212.288 580.549 251.138C728.258 289.988 812.321 433.773 768.305 572.291C724.292 710.81 568.868 791.605 421.16 752.756C273.449 713.906 472.832 642.212 516.845 503.694Z" fill="#7A1E1C"/>
<path d="M255.096 432.798C294.299 309.499 436.284 238.513 572.233 274.247C708.18 309.981 786.607 438.902 747.403 562.201C708.201 685.5 566.214 756.486 430.268 720.753C294.321 685.018 215.894 556.097 255.096 432.798Z" fill="#9B6E3C"/>
<path d="M725 524.689C708.481 643.245 595.365 727.744 472.351 713.417C349.337 699.092 263.006 591.37 279.526 472.812C296.046 354.254 409.161 269.758 532.175 284.083C655.192 298.408 416.628 593.868 725 524.689Z" fill="black"/>
<path d="M489.81 499.411C475.312 608.573 588.757 708.517 475.504 696.519C362.254 684.524 282.198 586.303 296.696 477.141C311.196 367.978 414.756 289.21 528.006 301.207C641.259 313.204 504.309 390.249 489.81 499.411Z" fill="#7A1E1C"/>
<path d="M691.039 522.526C678.14 619.922 583.269 689.911 479.142 678.85C375.014 667.789 301.061 579.868 313.961 482.472C326.861 385.077 421.732 315.089 525.858 326.15C629.987 337.21 703.938 425.131 691.039 522.526Z" fill="#9B6E3C"/>
<path d="M362.5 466.221C387.725 393.807 473.193 353.583 553.399 376.381C633.602 399.177 678.173 476.361 652.945 548.777C627.72 621.193 542.251 661.417 462.049 638.619C381.843 615.821 576.164 457.536 362.5 466.221Z" fill="black"/>
<path d="M515.86 508.693C538.642 441.394 475.475 365.568 549.125 385.843C622.775 406.12 664.01 477.115 641.229 544.414C618.447 611.711 540.273 649.833 466.623 629.556C392.973 609.279 493.078 575.993 515.86 508.693Z" fill="#7A1E1C"/>
<path d="M385.388 469.947C405.576 409.978 476.614 376.501 544.054 395.171C611.495 413.839 649.801 477.587 629.613 537.554C609.424 597.522 538.386 630.999 470.946 612.329C403.503 593.661 365.199 529.913 385.388 469.947Z" fill="#9B6E3C"/>
<path d="M612.5 533.202C599.193 583.526 543.721 614.495 488.602 602.372C433.481 590.248 399.584 539.625 412.891 489.298C426.197 438.974 481.67 408.005 536.788 420.128C591.91 432.25 469.176 548.127 612.5 533.202Z" fill="black"/>
<path d="M507.304 511.271C495.561 557.89 541.168 606.671 491.38 596.021C441.594 585.371 410.753 538.946 422.494 492.324C434.237 445.703 484.118 416.544 533.906 427.194C583.691 437.843 519.045 464.649 507.304 511.271Z" fill="#7A1E1C"/>
<path d="M597.819 531.262C587.221 572.239 540.992 597.617 494.561 587.943C448.132 578.272 419.084 537.213 429.681 496.238C440.279 455.261 486.508 429.883 532.939 439.557C579.368 449.228 608.416 490.287 597.819 531.262Z" fill="#9B6E3C"/>
<path d="M455 484.453C472.012 453.614 512.677 441.172 545.826 456.661C578.975 472.152 592.055 509.708 575.043 540.547C558.027 571.386 517.363 583.828 484.214 568.339C451.065 552.848 549.054 494.57 455 484.453Z" fill="black"/>
<path d="M517.598 513.295C533.463 484.651 511.64 446.546 542.838 460.459C574.037 474.375 586.467 508.875 570.602 537.519C554.736 566.165 516.582 578.107 485.383 564.191C454.185 550.277 501.73 541.941 517.598 513.295Z" fill="#7A1E1C"/>
<path d="M463.422 488.264C477.441 462.973 511.898 452.762 540.384 465.455C568.87 478.151 580.598 508.944 566.58 534.235C552.561 559.527 518.103 569.738 489.618 557.045C461.129 544.349 449.401 513.556 463.422 488.264Z" fill="#9B6E3C"/>
<path d="M554.915 507.635C556.388 531.085 538.592 551.141 515.167 552.434C491.742 553.727 471.558 535.766 470.085 512.319C468.612 488.869 486.408 468.812 509.836 467.519C533.261 466.226 500.223 531.178 554.915 507.635Z" fill="black"/>
<path d="M511.471 510.469C512.984 531.141 537.678 546.096 516.385 547.421C495.096 548.75 476.612 533.068 475.099 512.398C473.586 491.727 489.618 473.893 510.91 472.567C532.2 471.239 509.958 489.8 511.471 510.469Z" fill="#7A1E1C"/>
<path d="M549.913 509.015C551.285 527.614 536.208 543.692 516.237 544.925C496.263 546.158 478.959 532.081 477.587 513.485C476.213 494.886 491.29 478.811 511.264 477.575C531.235 476.342 548.539 490.419 549.913 509.015Z" fill="#9B6E3C"/>
</g>
<defs>
<filter id="filter0_d_2004_161" x="36" y="127.5" width="930.5" height="745.5" filterUnits="userSpaceOnUse" color-interpolation-filters="sRGB">
<feFlood flood-opacity="0" result="BackgroundImageFix"/>
<feColorMatrix in="SourceAlpha" type="matrix" values="0 0 0 0 0 0 0 0 0 0 0 0 0 0 0 0 0 0 127 0" result="hardAlpha"/>
<feOffset dy="4"/>
<feGaussianBlur stdDeviation="2"/>
<feComposite in2="hardAlpha" operator="out"/>
<feColorMatrix type="matrix" values="0 0 0 0 0 0 0 0 0 0 0 0 0 0 0 0 0 0 0.25 0"/>
<feBlend mode="normal" in2="BackgroundImageFix" result="effect1_dropShadow_2004_161"/>
<feBlend mode="normal" in="SourceGraphic" in2="effect1_dropShadow_2004_161" result="shape"/>
</filter>
</defs>
</svg>
